#Comment line ignore any data following # character 
#Hierarchical Translation and Rotation (.htr) file 
[Header]	
#Header keywords are followed by a single value 
FileType HTR		#Single word string
DataType HTRS		#Translation followed by rotation and scale data
FileVersion 1		#integer
NumSegments 64		#integer
NumFrames 3		#integer
DataFrameRate 30		#integer, data frame rate in this file
EulerRotationOrder ZYX
CalibrationUnits mm
RotationUnits Degrees
GlobalAxisofGravity Y
BoneLengthAxis Y
ScaleFactor 1.00
[SegmentNames&Hierarchy]
#CHILD	PARENT
Pinger_Root GLOBAL
Pelvis Pinger_Root
L_Hip Pelvis
R_Hip Pelvis
Rear_Leg01 Pelvis
Spine1 Pelvis
L_Leg01 L_Hip
L_Leg02 L_Leg01
L_Leg03 L_Leg02
L_Foot L_Leg03
L_Toe1_01 L_Foot
L_Toe2_01 L_Foot
L_Toe3_01 L_Foot
planeAlignerLeft L_Foot
L_Toe1_02 L_Toe1_01
L_Toe1_03 L_Toe1_02
L_Toe2_02 L_Toe2_01
L_Toe2_03 L_Toe2_02
L_Toe3_02 L_Toe3_01
L_Toe3_03 L_Toe3_02
planeLockWeightLeft planeAlignerLeft
R_Leg01 R_Hip
R_Leg02 R_Leg01
R_Leg03 R_Leg02
R_Foot R_Leg03
planeAlignerRight R_Foot
R_Toe1_01 R_Foot
R_Toe2_01 R_Foot
R_Toe3_01 R_Foot
planeLockWeightRight planeAlignerRight
R_Toe1_02 R_Toe1_01
R_Toe1_03 R_Toe1_02
R_Toe2_02 R_Toe2_01
R_Toe2_03 R_Toe2_02
R_Toe3_02 R_Toe3_01
R_Toe3_03 R_Toe3_02
Rear_Leg02 Rear_Leg01
Rear_Leg03 Rear_Leg02
Rear_Leg04 Rear_Leg03
Rear_Foot Rear_Leg04
planeAlignerCenter Rear_Foot
Rear_Toe1_01 Rear_Foot
Rear_Toe2_01 Rear_Foot
Rear_Toe3_01 Rear_Foot
planeLockWeightCenter planeAlignerCenter
Rear_Toe1_02 Rear_Toe1_01
Rear_Toe1_03 Rear_Toe1_02
Rear_Toe2_02 Rear_Toe2_01
Rear_Toe2_03 Rear_Toe2_02
Rear_Toe3_02 Rear_Toe3_01
Rear_Toe3_03 Rear_Toe3_02
Back_Bone Spine1
Head Spine1
Motor_Bone Back_Bone
Ping_Mechanism Back_Bone
BN_LookIK Head
bottomMouth Head
L_Mouth01 Head
L_mouthFront Head
mouthGun Head
R_Mouth01 Head
R_mouthFront Head
TopMouth Head
weapon_bone Head
[BasePosition]
#SegmentName Tx, Ty, Tz, Rx, Ry, Rz, BoneLength
Pinger_Root 0.000000 0.000000 0.000000 -90.000000 0.000000 0.000000 10.000000 
Pelvis 0.000000 0.000000 0.000000 0.000000 0.000000 0.000000 10.000000 
L_Hip 0.000000 0.000000 0.000000 0.000000 0.000000 0.000000 10.000000 
R_Hip 0.000000 0.000000 0.000000 0.000000 0.000000 0.000000 10.000000 
Rear_Leg01 0.000000 0.000000 0.000000 0.000000 0.000000 0.000000 10.000000 
Spine1 0.000000 0.000000 0.000000 0.000000 0.000000 0.000000 10.000000 
L_Leg01 0.000000 0.000000 0.000000 0.000000 0.000000 0.000000 10.000000 
L_Leg02 0.000000 0.000000 0.000000 0.000000 0.000000 0.000000 10.000000 
L_Leg03 0.000000 0.000000 0.000000 0.000000 0.000000 0.000000 10.000000 
L_Foot 0.000000 0.000000 0.000000 0.000000 0.000000 0.000000 10.000000 
L_Toe1_01 0.000000 0.000000 0.000000 0.000000 0.000000 0.000000 10.000000 
L_Toe2_01 0.000000 0.000000 0.000000 0.000000 0.000000 0.000000 10.000000 
L_Toe3_01 0.000000 0.000000 0.000000 0.000000 0.000000 0.000000 10.000000 
planeAlignerLeft 0.000000 0.000000 0.000000 0.000000 0.000000 0.000000 10.000000 
L_Toe1_02 0.000000 0.000000 0.000000 0.000000 0.000000 0.000000 10.000000 
L_Toe1_03 0.000000 0.000000 0.000000 0.000000 0.000000 0.000000 10.000000 
L_Toe2_02 0.000000 0.000000 0.000000 0.000000 0.000000 0.000000 10.000000 
L_Toe2_03 0.000000 0.000000 0.000000 0.000000 0.000000 0.000000 10.000000 
L_Toe3_02 0.000000 0.000000 0.000000 0.000000 0.000000 0.000000 10.000000 
L_Toe3_03 0.000000 0.000000 0.000000 0.000000 0.000000 0.000000 10.000000 
planeLockWeightLeft 0.000000 0.000000 0.000000 0.000000 0.000000 0.000000 10.000000 
R_Leg01 0.000000 0.000000 0.000000 0.000000 0.000000 0.000000 10.000000 
R_Leg02 0.000000 0.000000 0.000000 0.000000 0.000000 0.000000 10.000000 
R_Leg03 0.000000 0.000000 0.000000 0.000000 0.000000 0.000000 10.000000 
R_Foot 0.000000 0.000000 0.000000 0.000000 0.000000 0.000000 10.000000 
planeAlignerRight 0.000000 0.000000 0.000000 0.000000 0.000000 0.000000 10.000000 
R_Toe1_01 0.000000 0.000000 0.000000 0.000000 0.000000 0.000000 10.000000 
R_Toe2_01 0.000000 0.000000 0.000000 0.000000 0.000000 0.000000 10.000000 
R_Toe3_01 0.000000 0.000000 0.000000 0.000000 0.000000 0.000000 10.000000 
planeLockWeightRight 0.000000 0.000000 0.000000 0.000000 0.000000 0.000000 10.000000 
R_Toe1_02 0.000000 0.000000 0.000000 0.000000 0.000000 0.000000 10.000000 
R_Toe1_03 0.000000 0.000000 0.000000 0.000000 0.000000 0.000000 10.000000 
R_Toe2_02 0.000000 0.000000 0.000000 0.000000 0.000000 0.000000 10.000000 
R_Toe2_03 0.000000 0.000000 0.000000 0.000000 0.000000 0.000000 10.000000 
R_Toe3_02 0.000000 0.000000 0.000000 0.000000 0.000000 0.000000 10.000000 
R_Toe3_03 0.000000 0.000000 0.000000 0.000000 0.000000 0.000000 10.000000 
Rear_Leg02 0.000000 0.000000 0.000000 0.000000 0.000000 0.000000 10.000000 
Rear_Leg03 0.000000 0.000000 0.000000 0.000000 0.000000 0.000000 10.000000 
Rear_Leg04 0.000000 0.000000 0.000000 0.000000 0.000000 0.000000 10.000000 
Rear_Foot 0.000000 0.000000 0.000000 0.000000 0.000000 0.000000 10.000000 
planeAlignerCenter 0.000000 0.000000 0.000000 0.000000 0.000000 0.000000 10.000000 
Rear_Toe1_01 0.000000 0.000000 0.000000 0.000000 0.000000 0.000000 10.000000 
Rear_Toe2_01 0.000000 0.000000 0.000000 0.000000 0.000000 0.000000 10.000000 
Rear_Toe3_01 0.000000 0.000000 0.000000 0.000000 0.000000 0.000000 10.000000 
planeLockWeightCenter 0.000000 0.000000 0.000000 0.000000 0.000000 0.000000 10.000000 
Rear_Toe1_02 0.000000 0.000000 0.000000 0.000000 0.000000 0.000000 10.000000 
Rear_Toe1_03 0.000000 0.000000 0.000000 0.000000 0.000000 0.000000 10.000000 
Rear_Toe2_02 0.000000 0.000000 0.000000 0.000000 0.000000 0.000000 10.000000 
Rear_Toe2_03 0.000000 0.000000 0.000000 0.000000 0.000000 0.000000 10.000000 
Rear_Toe3_02 0.000000 0.000000 0.000000 0.000000 0.000000 0.000000 10.000000 
Rear_Toe3_03 0.000000 0.000000 0.000000 0.000000 0.000000 0.000000 10.000000 
Back_Bone 0.000000 0.000000 0.000000 0.000000 0.000000 0.000000 10.000000 
Head 0.000000 0.000000 0.000000 0.000000 0.000000 0.000000 10.000000 
Motor_Bone 0.000000 0.000000 0.000000 0.000000 0.000000 0.000000 10.000000 
Ping_Mechanism 0.000000 0.000000 0.000000 0.000000 0.000000 0.000000 10.000000 
BN_LookIK 0.000000 0.000000 0.000000 0.000000 0.000000 0.000000 10.000000 
bottomMouth 0.000000 0.000000 0.000000 0.000000 0.000000 0.000000 10.000000 
L_Mouth01 0.000000 0.000000 0.000000 0.000000 0.000000 0.000000 10.000000 
L_mouthFront 0.000000 0.000000 0.000000 0.000000 0.000000 0.000000 10.000000 
mouthGun 0.000000 0.000000 0.000000 0.000000 0.000000 0.000000 10.000000 
R_Mouth01 0.000000 0.000000 0.000000 0.000000 0.000000 0.000000 10.000000 
R_mouthFront 0.000000 0.000000 0.000000 0.000000 0.000000 0.000000 10.000000 
TopMouth 0.000000 0.000000 0.000000 0.000000 0.000000 0.000000 10.000000 
weapon_bone 0.000000 0.000000 0.000000 0.000000 0.000000 0.000000 10.000000 
#Beginning of Data. Separated by tabs
#Fr	Tx	Ty	Tz	Rx	Ry	Rz	SF
[Pinger_Root]
16 0.000000 0.000000 0.000000 -0.000075 -0.000000 -0.000020 0.000000
17 0.000000 0.000000 0.000000 -0.000075 -0.000000 -0.000020 0.000000
18 0.000000 0.000000 0.000000 -0.000075 -0.000000 -0.000020 0.000000
[Pelvis]
16 -151.643265 -145.838791 4041.829102 -166.603226 -83.102013 154.612366 4047.301025
17 -123.981880 -90.392845 4034.062744 -163.675476 -82.695641 152.614059 4036.979736
18 -91.325569 -14.587156 4028.107666 -162.891159 -82.383514 152.725357 4029.168945
[L_Hip]
16 5.766392 125.831482 872.656799 160.158691 -45.484905 122.312202 881.701050
17 5.766392 125.831482 872.656799 160.158691 -45.484894 122.312202 881.701050
18 5.766392 125.831482 872.656799 160.158691 -45.484905 122.312202 881.701050
[R_Hip]
16 5.765438 125.836372 -872.654907 38.087841 49.812687 125.703735 881.699829
17 5.765438 125.836372 -872.654907 38.087841 49.812687 125.703735 881.699829
18 5.765438 125.836372 -872.654907 38.701710 50.752491 125.903198 881.699829
[Rear_Leg01]
16 -192.298416 -925.602966 -0.001907 170.038803 5.453967 -149.516586 945.367432
17 -192.298416 -925.602966 -0.001907 169.779251 3.781837 -151.186722 945.367432
18 -192.298416 -925.602966 -0.001907 169.585693 2.563704 -150.151093 945.367432
[Spine1]
16 290.604584 5.007505 0.000477 11.875764 2.749066 14.228717 290.647736
17 290.604584 5.007505 0.000477 11.347069 2.959007 15.329307 290.647736
18 290.604584 5.007505 0.000477 10.822403 3.179043 16.428133 290.647736
[L_Leg01]
16 761.932007 -0.002384 -0.069261 18.212666 -21.403828 16.959009 761.932068
17 761.932007 -0.002384 -0.069261 17.740364 -21.254194 17.579313 761.932068
18 761.932007 -0.002384 -0.069261 19.281147 -21.557692 16.687878 761.932068
[L_Leg02]
16 1441.140503 -0.000954 -0.000715 0.865456 -0.198816 -129.253311 1441.140503
17 1441.140503 -0.000954 -0.000715 1.114235 -0.246822 -130.161072 1441.140503
18 1441.140503 -0.000954 -0.000715 1.363745 -0.290880 -131.069031 1441.140503
[L_Leg03]
16 1686.963989 -0.000715 -0.000954 0.019238 -0.005949 104.366943 1686.963989
17 1686.963989 -0.000715 -0.000954 0.019190 -0.006101 105.271957 1686.963989
18 1686.963989 -0.000715 -0.000954 0.012174 -0.005367 107.108910 1686.963989
[L_Foot]
16 3041.570068 -30.715107 11.297464 2.074145 4.704713 43.223824 3041.746094
17 3041.570068 -30.715107 11.297464 2.418392 3.538787 43.438988 3041.746094
18 3041.570068 -30.715107 11.297464 1.803867 3.926714 43.645092 3041.746094
[L_Toe1_01]
16 -188.216690 -224.732346 -21.137953 94.621361 -20.846258 178.389069 293.899567
17 -188.216690 -224.732346 -21.137953 94.621361 -20.846258 178.389069 293.899567
18 -188.216690 -224.732346 -21.137953 94.575638 -20.607189 178.553513 293.899567
[L_Toe2_01]
16 200.746536 -219.926590 148.838394 -103.114754 -23.047394 -32.408371 332.896027
17 200.746536 -219.926590 148.838394 -103.114754 -23.047394 -32.408371 332.896027
18 200.746536 -219.926590 148.838394 -102.893753 -23.182737 -32.797100 332.896027
[L_Toe3_01]
16 188.832520 -219.859131 -191.078659 -105.774963 27.009623 -55.716061 347.140900
17 188.832520 -219.859131 -191.078659 -105.774963 27.009623 -55.716061 347.140900
18 188.832520 -219.859131 -191.078659 -105.674767 26.673950 -55.864510 347.140900
[planeAlignerLeft]
16 0.812531 -811.448792 -0.314951 0.000000 -90.000000 -90.001900 811.449280
17 0.812531 -811.448792 -0.314951 0.000000 -90.000000 -90.001900 811.449280
18 0.812531 -811.448792 -0.314951 0.000000 -90.000000 -90.001900 811.449280
[L_Toe1_02]
16 413.761139 0.000477 0.000000 0.001661 0.070897 0.001661 413.761139
17 413.761139 0.000477 0.000000 0.001661 0.070897 0.001661 413.761139
18 413.761139 0.000477 0.000000 0.001661 0.070897 0.001661 413.761139
[L_Toe1_03]
16 464.317322 0.000358 -0.000089 0.001673 -0.448396 -0.003292 464.317322
17 464.317322 0.000358 -0.000089 0.001673 -0.448396 -0.003292 464.317322
18 464.317322 0.000358 -0.000089 0.001673 -0.448396 -0.003292 464.317322
[L_Toe2_02]
16 342.235809 -0.000477 0.000238 0.001179 -79.315407 0.001179 342.235809
17 342.235809 -0.000477 0.000238 0.001179 -79.310837 0.001179 342.235809
18 342.235809 -0.000477 0.000238 0.001179 -79.306236 0.001179 342.235809
[L_Toe2_03]
16 420.210846 -0.000715 0.000000 -179.998642 68.908218 -179.995087 420.210846
17 420.210846 -0.000715 0.000000 -179.998642 68.908218 -179.995087 420.210846
18 420.210846 -0.000715 0.000000 -179.998566 69.352631 -179.995026 420.210846
[L_Toe3_02]
16 329.270111 0.000954 0.000000 0.004675 -84.720070 0.004675 329.270111
17 329.270111 0.000954 0.000000 0.004675 -84.716721 0.004675 329.270111
18 329.270111 0.000954 0.000000 0.004675 -84.713387 0.004675 329.270111
[L_Toe3_03]
16 439.137451 -0.001907 0.000954 179.993240 43.140900 -179.999146 439.137451
17 439.137451 -0.001907 0.000954 179.993240 43.140900 -179.999146 439.137451
18 439.137451 -0.001907 0.000954 179.993225 43.683865 -179.999191 439.137451
[planeLockWeightLeft]
16 -0.000954 0.000238 -0.000305 -0.011826 -0.004376 0.005620 0.001029
17 -0.000954 0.000238 -0.000305 -0.011826 -0.004376 0.005620 0.001029
18 -0.000954 0.000238 -0.000305 -0.011826 -0.004376 0.005620 0.001029
[R_Leg01]
16 761.455627 -0.001907 -0.000358 106.855690 -34.305283 34.015427 761.455688
17 761.455627 -0.001907 -0.000358 107.962280 -32.979584 33.849552 761.455688
18 761.455627 -0.001907 -0.000358 108.551880 -32.523685 34.664886 761.455688
[R_Leg02]
16 1441.140625 0.000000 -0.000238 0.756649 -0.157476 -105.982903 1441.140625
17 1441.140625 0.000000 -0.000238 0.537293 -0.090416 -107.302971 1441.140625
18 1441.140625 0.000000 -0.000238 0.263233 -0.024752 -109.419807 1441.140625
[R_Leg03]
16 1686.963989 0.000954 0.001431 -0.002560 0.002215 109.533730 1686.963989
17 1686.963989 0.000954 0.001431 0.002307 -0.000433 111.277596 1686.963989
18 1686.963989 0.000954 0.001431 0.007787 -0.002753 112.709373 1686.963989
[R_Foot]
16 3041.560059 -30.531288 -11.204481 11.678668 -37.446808 32.987606 3041.734131
17 3041.560059 -30.531288 -11.204481 11.201225 -37.538944 33.939907 3041.734131
18 3041.560059 -30.531288 -11.204481 10.149307 -37.265377 35.780449 3041.734131
[planeAlignerRight]
16 -0.635147 -812.270569 -0.364304 0.000000 -89.960434 -90.005180 812.270874
17 -0.635147 -812.270569 -0.364304 0.000000 -89.960434 -90.005180 812.270874
18 -0.635147 -812.270569 -0.364304 0.000000 -89.960434 -90.005180 812.270874
[R_Toe1_01]
16 -188.383347 -224.864899 21.052242 78.327164 0.810639 -176.062744 294.101532
17 -188.383347 -224.864899 21.052242 78.327148 0.810639 -176.062744 294.101532
18 -188.383347 -224.864899 21.052242 78.327164 0.810639 -176.062744 294.101532
[R_Toe2_01]
16 200.637817 -220.002121 -148.787384 -94.913536 45.204365 -40.768372 332.857574
17 200.637817 -220.002121 -148.787384 -94.913536 45.204365 -40.768372 332.857574
18 200.637817 -220.002121 -148.787384 -94.571381 45.249321 -40.770958 332.857574
[R_Toe3_01]
16 188.606735 -220.092957 191.126343 -77.777176 -16.659966 -55.221592 347.192566
17 188.606735 -220.092957 191.126343 -77.777199 -16.659967 -55.221592 347.192566
18 188.606735 -220.092957 191.126343 -77.777176 -16.659966 -55.221592 347.192566
[planeLockWeightRight]
16 -0.000477 0.000000 0.000000 -0.011823 -0.004379 -0.000027 0.000477
17 -0.000477 0.000000 0.000000 -0.011823 -0.004379 -0.000027 0.000477
18 -0.000477 0.000000 0.000000 -0.011823 -0.004379 -0.000027 0.000477
[R_Toe1_02]
16 413.762085 0.000477 -0.000119 0.001534 -9.820315 0.001534 413.762085
17 413.762085 0.000477 -0.000119 0.001534 -9.820126 0.001534 413.762085
18 413.762085 0.000477 -0.000119 0.001534 -9.819935 0.001534 413.762085
[R_Toe1_03]
16 464.317810 0.000000 0.001088 0.001388 9.997394 -0.003176 464.317810
17 464.317810 0.000000 0.001088 0.001388 9.997204 -0.003176 464.317810
18 464.317810 0.000000 0.001088 0.001388 9.997011 -0.003176 464.317810
[R_Toe2_02]
16 342.234741 -0.000954 0.000238 -0.002332 -79.833969 -0.002332 342.234741
17 342.234741 -0.000954 0.000238 -0.002332 -79.833969 -0.002332 342.234741
18 342.234741 -0.000954 0.000238 -0.002332 -79.833969 -0.002332 342.234741
[R_Toe2_03]
16 420.210846 0.000715 -0.000268 -179.995636 64.198975 -179.999222 420.210846
17 420.210846 0.000715 -0.000268 -179.995636 64.198975 -179.999222 420.210846
18 420.210846 0.000715 -0.000268 -179.995636 64.198975 -179.999222 420.210846
[R_Toe3_02]
16 329.270355 -0.000477 -0.000954 0.001175 -84.669571 0.001175 329.270355
17 329.270355 -0.000477 -0.000954 0.001175 -84.667549 0.001175 329.270355
18 329.270355 -0.000477 -0.000954 0.001175 -84.665565 0.001175 329.270355
[R_Toe3_03]
16 439.137939 0.000238 0.001431 -179.997650 45.533470 -179.990097 439.137939
17 439.137939 0.000238 0.001431 -179.997650 45.533474 -179.990097 439.137939
18 439.137939 0.000238 0.001431 -179.997650 45.533470 -179.990097 439.137939
[Rear_Leg02]
16 1162.777710 -0.029802 0.005960 2.405907 -1.802454 -140.848740 1162.777710
17 1162.777710 -0.029802 0.005960 2.364728 -1.848197 -142.744629 1162.777710
18 1162.777710 -0.029802 0.005960 2.156383 -1.806419 -140.704834 1162.777710
[Rear_Leg03]
16 607.192505 -0.013351 -0.073195 0.010070 -0.005894 77.035835 607.192505
17 607.192505 -0.013351 -0.073195 0.010090 -0.005861 76.663857 607.192505
18 607.192505 -0.013351 -0.073195 0.010108 -0.005829 76.291855 607.192505
[Rear_Leg04]
16 995.874512 -0.020504 -0.011921 -0.043078 -0.017578 89.760147 995.874573
17 995.874512 -0.020504 -0.011921 -0.042928 -0.017941 88.794014 995.874573
18 995.874512 -0.020504 -0.011921 -0.042698 -0.018481 87.349319 995.874573
[Rear_Foot]
16 3096.176270 -0.067472 -0.041425 -35.711117 85.077492 140.053528 3096.176270
17 3096.176270 -0.067472 -0.041425 -43.205585 85.849937 134.146057 3096.176270
18 3096.176270 -0.067472 -0.041425 -51.818993 86.628670 126.362640 3096.176270
[planeAlignerCenter]
16 0.350077 0.966311 -838.790894 0.000009 0.000003 -179.999985 838.791565
17 0.350077 0.966311 -838.790894 0.000009 0.000003 -179.999985 838.791565
18 0.350077 0.966311 -838.790894 0.000009 0.000003 -179.999985 838.791565
[Rear_Toe1_01]
16 0.653352 83.966492 -371.173737 0.478308 22.850317 95.731369 380.553192
17 0.653352 83.966492 -371.173737 0.457296 22.847561 95.118279 380.553192
18 0.653352 83.966492 -371.173737 0.436313 22.844593 94.505165 380.553192
[Rear_Toe2_01]
16 178.200760 -294.826019 -362.060547 -8.838006 20.710819 -61.012775 499.765686
17 178.200760 -294.826019 -362.060547 -8.832109 20.712288 -61.771637 499.765686
18 178.200760 -294.826019 -362.060547 -8.826233 20.713831 -62.530548 499.765686
[Rear_Toe3_01]
16 -153.359680 -308.780914 -362.060852 3.999270 20.184418 -105.951080 499.952881
17 -153.359680 -308.780914 -362.060852 4.004664 20.188221 -106.692818 499.952881
18 -153.359680 -308.780914 -362.060852 4.010006 20.192095 -107.434639 499.952881
[planeLockWeightCenter]
16 -0.000062 0.000238 0.000000 -0.011814 -0.004373 -0.000015 0.000246
17 -0.000062 0.000238 0.000000 -0.011814 -0.004373 -0.000015 0.000246
18 -0.000062 0.000238 0.000000 -0.011814 -0.004373 -0.000015 0.000246
[Rear_Toe1_02]
16 379.707825 0.194073 0.000477 -0.002640 -33.270702 -0.002640 379.707855
17 379.707825 0.194073 0.000477 -0.002640 -33.270027 -0.002640 379.707855
18 379.707825 0.194073 0.000477 -0.002640 -33.269352 -0.002640 379.707855
[Rear_Toe1_03]
16 500.129700 0.165701 0.000119 -0.008988 83.864227 -0.012490 500.129761
17 500.129700 0.165701 0.000119 -0.009011 83.877495 -0.012513 500.129761
18 500.129700 0.165701 0.000119 -0.009035 83.890709 -0.012536 500.129761
[Rear_Toe2_02]
16 340.494507 0.000238 -0.000954 0.001188 -72.083595 0.001188 340.494507
17 340.494507 0.000238 -0.000954 0.001188 -72.072525 0.001188 340.494507
18 340.494507 0.000238 -0.000954 0.001188 -72.061401 0.001188 340.494507
[Rear_Toe2_03]
16 433.103577 0.000000 0.000238 0.008059 73.252686 0.008059 433.103546
17 433.103577 0.000000 0.000238 0.008063 73.260406 0.008063 433.103546
18 433.103577 0.000000 0.000238 0.008066 73.268089 0.008066 433.103546
[Rear_Toe3_02]
16 340.494141 -0.000358 -0.000477 0.001195 -68.182312 0.001195 340.494171
17 340.494141 -0.000358 -0.000477 0.001195 -68.252670 0.001195 340.494171
18 340.494141 -0.000358 -0.000477 0.001195 -68.323051 0.001195 340.494171
[Rear_Toe3_03]
16 433.103577 0.001431 -0.000238 0.005997 67.427277 0.005997 433.103546
17 433.103577 0.001431 -0.000238 0.006017 67.506416 0.006017 433.103546
18 433.103577 0.001431 -0.000238 0.006038 67.585510 0.006038 433.103546
[Back_Bone]
16 1312.175781 -701.934692 0.000954 -1.193113 4.259346 -86.210495 1488.125488
17 1312.175781 -701.934692 0.000954 -1.147554 4.537098 -85.370064 1488.125488
18 1312.175781 -701.934692 0.000954 -1.136339 4.761744 -84.847382 1488.125488
[Head]
16 1406.159424 809.709290 0.001431 10.038911 1.425886 7.395738 1622.625488
17 1406.159424 809.709290 0.001431 8.636451 1.408684 8.204762 1622.625488
18 1406.159424 809.709290 0.001431 7.233607 1.411285 9.014125 1622.625488
[Motor_Bone]
16 1158.364380 -417.834747 0.000477 -0.000105 0.000046 -105.985291 1231.419434
17 1158.364380 -417.834747 0.000477 -0.000105 0.000046 -105.985291 1231.419434
18 1158.364380 -417.834747 0.000477 -0.000105 0.000046 -105.985291 1231.419434
[Ping_Mechanism]
16 1212.337158 -430.102356 -30.714523 0.000103 -0.000053 82.120995 1286.737305
17 1213.064819 -430.005859 -31.954489 0.000103 -0.000053 82.120995 1287.420776
18 1213.792480 -429.909393 -33.194454 0.000103 -0.000053 82.120995 1288.105591
[BN_LookIK]
16 193.241119 1380.371704 -0.002861 0.000000 89.965736 -31.038179 1393.832153
17 193.241119 1380.371704 -0.002861 0.000000 89.965736 -31.038179 1393.832153
18 193.241119 1380.371704 -0.002861 0.000000 89.965736 -31.038179 1393.832153
[bottomMouth]
16 -435.092926 615.759399 -0.000954 -0.000022 0.000016 73.527184 753.966492
17 -435.092926 615.759399 -0.000954 -0.000022 0.000016 73.527184 753.966492
18 -435.092926 615.759399 -0.000954 -0.000022 0.000016 73.527184 753.966492
[L_Mouth01]
16 554.440979 7.658243 838.222046 150.204178 23.759130 109.605339 1005.027161
17 554.440979 7.658243 838.222046 150.204178 23.759130 109.605339 1005.027161
18 554.440979 7.658243 838.222046 150.204178 23.759130 109.605339 1005.027161
[L_mouthFront]
16 551.629089 934.514771 339.150421 0.000081 2.804060 79.119301 1136.941284
17 551.629089 934.514771 339.150421 0.000081 2.804060 79.119301 1136.941284
18 551.629089 934.514771 339.150421 0.000081 2.804060 79.119301 1136.941284
[mouthGun]
16 55.332661 1627.420898 0.000000 0.000023 0.000009 -11.038128 1628.361328
17 55.332661 1627.420898 0.000000 0.000023 0.000009 -11.038128 1628.361328
18 55.332661 1627.420898 0.000000 0.000023 0.000009 -11.038128 1628.361328
[R_Mouth01]
16 554.442383 7.659197 -838.223938 29.795891 -23.759109 109.605331 1005.029541
17 554.442383 7.659197 -838.223938 29.795891 -23.759109 109.605331 1005.029541
18 554.442383 7.659197 -838.223938 29.795891 -23.759109 109.605331 1005.029541
[R_mouthFront]
16 551.629089 934.514282 -339.151367 0.000029 -2.803930 79.119133 1136.941162
17 551.629089 934.514282 -339.151367 0.000029 -2.803930 79.119133 1136.941162
18 551.629089 934.514282 -339.151367 0.000029 -2.803930 79.119133 1136.941162
[TopMouth]
16 461.269867 -56.106091 -0.008583 -0.000059 -0.000268 92.025169 464.669525
17 461.269867 -56.106091 -0.008583 -0.000059 -0.000268 92.025169 464.669525
18 461.269867 -56.106091 -0.008583 -0.000059 -0.000268 92.025169 464.669525
[weapon_bone]
16 -987.239868 1448.372803 0.001431 0.000000 89.965736 -31.038221 1752.833740
17 -987.239868 1448.372803 0.001431 0.000000 89.965736 -31.038221 1752.833740
18 -987.239868 1448.372803 0.001431 0.000000 89.965736 -31.038221 1752.833740
